<?xml version="1.0" standalone="no"?>
<!DOCTYPE svg PUBLIC "-//W3C//DTD SVG 20010904//EN"
 "http://www.w3.org/TR/2001/REC-SVG-20010904/DTD/svg10.dtd">
<svg version="1.0" xmlns="http://www.w3.org/2000/svg"
 width="1834.000000pt" height="2251.000000pt" viewBox="0 0 1834.000000 2251.000000"
 preserveAspectRatio="xMidYMid meet">

<g transform="translate(0.000000,2251.000000) scale(0.100000,-0.100000)"
fill="#000000" stroke="none">
<path d="M8745 22493 c-989 -42 -2056 -253 -2990 -590 -2218 -801 -3929 -2250
-4880 -4133 -328 -651 -554 -1309 -700 -2041 -98 -497 -149 -961 -164 -1504
-48 -1708 331 -3248 1126 -4574 343 -572 704 -1033 1193 -1522 429 -430 816
-747 1327 -1087 1374 -916 2992 -1466 4753 -1618 247 -21 1008 -30 1281 -15
2909 162 5594 1538 7125 3651 812 1121 1298 2397 1459 3835 43 385 50 534 50
1070 -1 532 -9 687 -56 1090 -164 1410 -660 2695 -1466 3799 -247 338 -461
586 -802 927 -441 440 -811 742 -1326 1084 -1459 966 -3199 1528 -5030 1625
-170 9 -720 11 -900 3z m5520 -3052 c493 -75 884 -245 1190 -519 179 -160 310
-332 416 -547 299 -610 256 -1350 -131 -2240 -658 -1513 -2376 -3372 -4560
-4936 -2371 -1699 -4825 -2730 -6494 -2729 -786 1 -1364 210 -1786 646 -169
175 -271 327 -363 543 -274 647 -182 1427 278 2366 337 687 841 1394 1553
2178 196 216 741 761 972 973 1006 921 2108 1747 3270 2451 1553 939 3057
1558 4295 1768 170 29 272 41 550 69 22 2 182 3 355 1 260 -2 339 -7 455 -24z"/>
<path d="M453 5698 l-103 -40 0 -2829 0 -2829 8820 0 8820 0 -2 2817 -3 2817
-112 44 -112 43 -258 -262 c-266 -269 -517 -503 -754 -701 -899 -749 -1947
-1370 -3059 -1810 -124 -49 -308 -123 -410 -165 -1093 -449 -2160 -704 -3350
-799 -265 -21 -975 -30 -1260 -15 -1315 67 -2588 366 -3790 891 -85 37 -247
106 -360 153 -876 364 -1716 837 -2435 1374 -481 358 -805 642 -1242 1087
-144 146 -267 266 -275 265 -7 0 -59 -18 -115 -41z"/>
</g>
</svg>
