<?xml version="1.0" encoding="UTF-8"?>
<svg id="Capa_1" xmlns="http://www.w3.org/2000/svg" viewBox="0 0 723.5 888.18">
  <defs>
    <style>
      .cls-1 {
        fill: #fff;
      }
    </style>
  </defs>
  <path class="cls-1" d="M361.75,675.27c167.03,0,361.75-110.76,361.75-337.64S528.78,0,361.75,0,0,110.76,0,337.64s195.61,337.64,361.75,337.64ZM543.3,119.51c33.71,0,59.93,10.3,76.78,32.77,9.37,13.11,14.05,28.09,14.05,44.95,0,134.84-293.08,356.75-449.46,356.75-33.71,0-59.93-10.3-76.78-32.77-9.37-13.11-14.05-28.09-14.05-44.94,0-134.84,293.08-356.76,449.46-356.76Z"/>
  <path class="cls-1" d="M529.28,776.19c-52.96,23.02-110.78,34.82-167.53,34.82s-119.59-12.86-174.4-37.9c-43.04-16.86-83.24-39.77-118.29-67.97-16.79-13.51-32.24-28.11-46.32-43.68-4.48,1.73-4.66,1.8-9.14,3.53v223.2h696.29v-222.24c-4.49-1.72-4.66-1.79-9.16-3.51-46.98,51.61-106.69,89.77-171.46,113.77Z"/>
</svg>