<?xml version="1.0" encoding="UTF-8"?>
<svg id="Capa_1" xmlns="http://www.w3.org/2000/svg" viewBox="0 0 2032.23 840.31">
  <defs>
    <style>
      .cls-1 {
        fill: #fff;
      }
    </style>
  </defs>
  <rect class="cls-1" x="192.17" y="789.2" width="417.33" height="21.38"/>
  <path class="cls-1" d="M2030.2,564.7c-62.09,87.54-134.36,130.29-235.13,130.29-164.9,0-286.02-176.09-286.02-364.4S1619.99,11.99,1782.85,11.99c99.75,0,179.15,47.84,213.75,131.31l3.05-1.02-31.56-124.18c-72.27,5.09-83.47-17.3-185.25-17.3-151.37,0-271.19,93.99-313.91,234.36-2.09,6.88-12.28,5.32-12.28-1.88v-119.27c0-57,5.09-87.54,31.56-100.77v-2.04h-81.43l-259,609.65c-2.15,5.05-9.29,5.12-11.53.1L864.26,11.2h-79.4v2.04c23.41,13.23,28.5,43.77,28.5,100.77v118.55c0,6.92-9.56,8.76-12.1,2.33C748.36,101.29,603.11,0,410.87,0,166.95,0,0,163.04,0,348.26s166.95,346.95,410.87,346.95c192.25,0,337.5-101.29,390.4-234.25,2.56-6.42,12.1-4.57,12.1,2.34v129.11c0,57-5.09,87.54-28.5,100.77v2.04h77.36v-2.04c-23.41-13.23-28.5-43.77-28.5-100.77V100.62c0-6.78,9.25-8.76,12.02-2.57l267.9,597.16h21.38L1397.77,76.28c2.68-6.3,12.07-4.39,12.07,2.46v513.67c0,57-5.09,87.54-31.55,100.77v2.04h109.93v-2.04c-26.47-13.23-31.56-43.77-31.56-100.77v-120.57c0-7.21,10.21-8.76,12.28-1.85,42.48,141.14,161.05,236.2,309.83,236.2,124.18,0,192.38-51.91,253.45-140.47l-2.04-1.02ZM410.87,684.77c-204.78,0-340.43-165.65-340.43-336.52S206.09,10.44,410.87,10.44s341.74,165.65,341.74,337.82-135.65,336.52-341.74,336.52Z"/>
</svg>