<svg width="152" height="53" viewBox="0 0 152 53" fill="none" xmlns="http://www.w3.org/2000/svg">
<path d="M151.847 42.3368C147.202 48.8988 141.797 52.1049 134.261 52.1049C121.927 52.1049 112.869 38.902 112.869 24.7842C112.869 10.6663 121.166 0.898218 133.346 0.898218C140.807 0.898218 146.746 4.48485 149.335 10.7433L149.563 10.6663L147.202 1.35564C141.797 1.73614 140.959 0.0582178 133.346 0.0582178C122.025 0.0582178 113.062 7.10465 109.868 17.6296C109.71 18.1452 108.949 18.0288 108.949 17.4882V8.54554C108.949 4.27277 109.33 1.98356 111.309 0.989703V0.837921H105.219L85.8476 46.5451C85.6879 46.9236 85.1527 46.9298 84.9847 46.5535L64.6424 0.84H58.7038V0.991782C60.4544 1.98356 60.8361 4.27277 60.8361 8.54762V17.4362C60.8361 17.956 60.1205 18.0933 59.9317 17.6109C55.9719 7.59327 45.109 0 30.7302 0C12.4871 0 0 12.2237 0 26.1107C0 39.9977 12.4871 52.1216 30.7302 52.1216C45.109 52.1216 55.974 44.5283 59.9296 34.5585C60.1205 34.0761 60.834 34.2154 60.834 34.7332V44.4119C60.834 48.6847 60.4524 50.9739 58.7017 51.9677V52.1195H64.4868V51.9677C62.7361 50.9759 62.3545 48.6867 62.3545 44.4119V7.54337C62.3545 7.03604 63.0452 6.88634 63.2526 7.35L83.29 52.1216H84.8893L104.545 5.71782C104.744 5.24584 105.447 5.38931 105.447 5.90287V44.414C105.447 48.6867 105.068 50.9759 103.087 51.9698V52.1216H111.309V51.9698C109.33 50.978 108.949 48.6888 108.949 44.414V35.3736C108.949 34.833 109.712 34.7165 109.868 35.2343C113.045 45.8153 121.913 52.9429 133.041 52.9429C142.33 52.9429 147.43 49.0506 151.998 42.4117L151.847 42.3348V42.3368ZM30.7302 51.3398C15.4139 51.3398 5.26863 38.9207 5.26863 26.1107C5.26863 13.3007 15.4139 0.781782 30.7302 0.781782C46.0466 0.781782 56.2893 13.2009 56.2893 26.1086C56.2893 39.0163 46.1441 51.3377 30.7302 51.3377V51.3398Z" fill="#F0E6DC"/>
</svg>
