<?xml version="1.0" encoding="UTF-8"?>
<svg id="Capa_1" xmlns="http://www.w3.org/2000/svg" viewBox="0 0 2731.07 622.95">
  <defs>
    <style>
      .cls-1 {
        fill: #fff;
      }
    </style>
  </defs>
  <path class="cls-1" d="M599.31,43.98h94.3c128.43,88.92,224.19,189.99,250.79,342.75V43.98h94.3v531.98h-94.3v-93.48c-21.28-151.23-147.43-239.39-250.79-274.35v367.82h-94.3V43.98Z"/>
  <path class="cls-1" d="M1517.61,515.86v60.1h-384.61V43.98h94.3v471.88h290.31Z"/>
  <path class="cls-1" d="M1614.28,43.98h94.3v531.98h-94.3V43.98Z"/>
  <path class="cls-1" d="M1802.88,43.98h94.3c128.44,88.92,224.19,189.99,250.79,342.75V43.98h94.3v531.98h-94.3v-93.48c-21.28-151.23-147.43-239.39-250.79-274.35v367.82h-94.3V43.98Z"/>
  <g>
    <path class="cls-1" d="M2428.89,204.24c31.29,139.17,181.86,119.81,302.17,203.76v-116.89c-97.01-33.85-272.05.28-302.17-134.58v47.7Z"/>
    <path class="cls-1" d="M2430.88,390.53c.06-.87.15-1.7.22-2.56v-46.33c-.07.34-.15.66-.22,1v-149.7h295.63V43.98h-389.93v531.98h394.49v-121.36h-300.19v-64.07Z"/>
  </g>
  <g>
    <path class="cls-1" d="M252.5,471.34c116.59,0,252.5-77.31,252.5-235.67S369.09,0,252.5,0,0,77.31,0,235.67s136.54,235.67,252.5,235.67ZM379.22,83.42c23.53,0,41.83,7.19,53.59,22.88,6.54,9.15,9.8,19.61,9.8,31.37,0,94.12-204.57,249.01-313.72,249.01-23.53,0-41.83-7.19-53.59-22.87-6.54-9.15-9.8-19.61-9.8-31.37,0-94.12,204.57-249.02,313.72-249.02Z"/>
    <path class="cls-1" d="M374.01,541.73c-38.41,16.7-80.35,25.25-121.51,25.25s-86.74-9.33-126.49-27.49c-31.21-12.22-60.37-28.85-85.79-49.3-10.53-8.47-20.33-17.53-29.39-27.13-5.25,2.13-5.58,2.26-10.83,4.39v155.5h505v-154.87c-5.33-2.09-5.58-2.19-10.9-4.28-33.39,35.12-75.05,61.24-120.09,77.93Z"/>
  </g>
</svg>