<?xml version="1.0" encoding="UTF-8"?>
<svg id="Capa_1" xmlns="http://www.w3.org/2000/svg" viewBox="0 0 2070.95 295.25">
  <defs>
    <style>
      .cls-1 {
        fill: #161616;
      }
    </style>
  </defs>
  <path class="cls-1" d="M0,115.42C0,54.03,55.33,0,136.17,0s136.6,54.03,136.6,115.42-55.76,114.99-136.6,114.99S0,176.37,0,115.42M249.42,115.42c0-57.06-44.95-111.96-113.26-111.96S23.34,58.36,23.34,115.42s44.96,111.53,112.82,111.53,113.26-54.9,113.26-111.53M43.23,286.17h177.23v9.08H43.23v-9.08Z"/>
  <path class="cls-1" d="M689.46,5.62c-9.94,5.62-12.1,18.59-12.1,42.79v246.83h-9.51L475.05,36.31v215.27c0,24.2,2.16,37.17,12.1,42.79v.87h-32.85v-.87c9.94-5.62,12.1-18.59,12.1-42.79V48.41c0-24.21-2.16-37.17-12.1-42.79v-.87h23.34l191.07,258.07V48.41c0-24.21-2.16-37.17-12.1-42.79v-.87h32.85v.87Z"/>
  <path class="cls-1" d="M1083.69,239.91l-15.13,55.33h-193.23v-.87c11.24-5.62,13.4-18.59,13.4-42.79V48.41c0-24.21-2.16-37.17-13.4-42.79v-.87h46.69v.87c-11.24,5.62-13.4,18.59-13.4,42.79v242.08h68.73c57.92,0,81.7-6.05,105.48-50.58h.87Z"/>
  <path class="cls-1" d="M1303.26,5.62c-11.24,5.62-13.4,18.59-13.4,42.79v203.17c0,24.2,2.16,37.17,13.4,42.79v.87h-46.69v-.87c11.24-5.62,13.4-18.59,13.4-42.79V48.41c0-24.21-2.17-37.17-13.4-42.79v-.87h46.69v.87Z"/>
  <path class="cls-1" d="M1724.29,5.62c-9.94,5.62-12.11,18.59-12.11,42.79v246.83h-9.51l-192.79-258.94v215.27c0,24.2,2.16,37.17,12.1,42.79v.87h-32.85v-.87c9.94-5.62,12.1-18.59,12.1-42.79V48.41c0-24.21-2.16-37.17-12.1-42.79v-.87h23.34l191.07,258.07V48.41c0-24.21-2.16-37.17-12.1-42.79v-.87h32.85v.87Z"/>
  <path class="cls-1" d="M2070.95,252.89l-15.13,42.36h-193.22v-.86c11.24-4.32,13.4-14.27,13.4-32.85V38.48c0-18.59-2.16-28.53-13.4-32.85v-.87h185.01l15.13,42.8-.87.43c-27.67-37.61-48.41-39.34-111.09-39.34h-54.9v107.2h85.16c36.31,0,44.95-8.22,48.84-20.75h1.3v44.52h-1.3c-3.89-12.1-12.53-20.31-48.84-20.31h-85.16v172.47h68.73c57.92,0,81.7-4.75,105.47-38.9h.86Z"/>
</svg>