<?xml version="1.0" encoding="UTF-8"?>
<svg id="Capa_1" xmlns="http://www.w3.org/2000/svg" viewBox="0 0 2731.07 927.32">
  <defs>
    <style>
      .cls-1 {
        fill: #fff;
      }
    </style>
  </defs>
  <g>
    <path class="cls-1" d="M599.31,78.44h94.3c128.43,88.92,224.19,189.99,250.79,342.75V78.44h94.3v531.98h-94.3v-93.48c-21.28-151.23-147.43-239.39-250.79-274.35v367.82h-94.3V78.44Z"/>
    <path class="cls-1" d="M1517.61,550.32v60.1h-384.61V78.44h94.3v471.88h290.31Z"/>
    <path class="cls-1" d="M1614.28,78.44h94.3v531.98h-94.3V78.44Z"/>
    <path class="cls-1" d="M1802.88,78.44h94.3c128.44,88.92,224.19,189.99,250.79,342.75V78.44h94.3v531.98h-94.3v-93.48c-21.28-151.23-147.43-239.39-250.79-274.35v367.82h-94.3V78.44Z"/>
    <g>
      <path class="cls-1" d="M2428.89,238.7c31.29,139.17,181.86,119.81,302.17,203.76v-116.89c-97.01-33.85-272.05.28-302.17-134.58v47.7Z"/>
      <path class="cls-1" d="M2430.88,424.99c.06-.87.15-1.7.22-2.56v-46.33c-.07.34-.15.66-.22,1v-149.7h295.63V78.44h-389.93v531.98h394.49v-121.36h-300.19v-64.07Z"/>
    </g>
    <g>
      <path class="cls-1" d="M252.5,505.8c116.59,0,252.5-77.31,252.5-235.67S369.09,34.46,252.5,34.46,0,111.77,0,270.13s136.54,235.67,252.5,235.67ZM379.22,117.88c23.53,0,41.83,7.19,53.59,22.88,6.54,9.15,9.8,19.61,9.8,31.37,0,94.12-204.57,249.01-313.72,249.01-23.53,0-41.83-7.19-53.59-22.87-6.54-9.15-9.8-19.61-9.8-31.37,0-94.12,204.57-249.02,313.72-249.02Z"/>
      <path class="cls-1" d="M374.01,576.19c-38.41,16.7-80.35,25.25-121.51,25.25s-86.74-9.33-126.49-27.49c-31.21-12.22-60.37-28.85-85.79-49.3-10.53-8.47-20.33-17.53-29.39-27.13-5.25,2.13-5.58,2.26-10.83,4.39v155.5h505v-154.87c-5.33-2.09-5.58-2.19-10.9-4.28-33.39,35.12-75.05,61.24-120.09,77.93Z"/>
    </g>
  </g>
  <g>
    <path class="cls-1" d="M591.78,906.56l37.14-94.7h19.74l37.27,94.7h-16.57l-8.42-21.95h-44.87l-8.42,21.95h-15.88ZM621.05,871.5h34.79l-10.63-27.75c-.28-.83-.69-1.98-1.24-3.45-.55-1.47-1.13-3.08-1.73-4.83-.6-1.75-1.2-3.52-1.79-5.31-.6-1.79-1.13-3.43-1.59-4.9h-.83c-.55,1.75-1.24,3.82-2.07,6.21-.83,2.39-1.64,4.69-2.42,6.9-.78,2.21-1.45,4-2,5.38l-10.49,27.75Z"/>
    <path class="cls-1" d="M752.89,908.22c-15,0-26.53-3.96-34.58-11.87-8.05-7.91-12.08-20.29-12.08-37.14,0-11.04,1.88-20.18,5.66-27.4,3.77-7.22,9.25-12.63,16.43-16.22s15.92-5.38,26.23-5.38c6.17,0,11.89.69,17.19,2.07,5.29,1.38,9.94,3.48,13.94,6.28,4,2.81,7.09,6.33,9.25,10.56,2.16,4.23,3.24,9.25,3.24,15.05h-15.74c0-3.59-.71-6.7-2.14-9.32-1.43-2.62-3.41-4.81-5.94-6.56-2.53-1.75-5.48-3.01-8.83-3.8-3.36-.78-6.93-1.17-10.7-1.17-5.25,0-9.92.69-14.01,2.07-4.1,1.38-7.52,3.5-10.28,6.35-2.76,2.85-4.83,6.44-6.21,10.77-1.38,4.33-2.07,9.44-2.07,15.32v2.9c0,8.1,1.17,14.68,3.52,19.74,2.35,5.06,5.84,8.77,10.49,11.11,4.65,2.35,10.33,3.52,17.05,3.52,6.35,0,11.69-.92,16.01-2.76,4.33-1.84,7.64-4.58,9.94-8.21,2.3-3.63,3.45-8.17,3.45-13.6v-1.38h-31.89v-12.84h47.35v50.25h-11.18l-1.52-11.32c-2.58,3.04-5.52,5.5-8.84,7.39-3.31,1.89-6.93,3.29-10.84,4.21-3.91.92-8.21,1.38-12.91,1.38Z"/>
    <path class="cls-1" d="M833.51,906.56v-94.7h73.44v13.25h-57.98v26.37h51.91v13.25h-51.91v28.58h58.81v13.25h-74.27Z"/>
    <path class="cls-1" d="M940.36,906.56v-94.7h14.91l43.21,59.36c.55.55,1.17,1.34,1.86,2.35.69,1.01,1.36,2.03,2,3.04.64,1.01,1.1,1.84,1.38,2.48h.69v-67.23h14.91v94.7h-14.36l-43.76-60.05c-.74-1.1-1.66-2.51-2.76-4.21-1.1-1.7-1.93-3.01-2.48-3.93h-.69v68.2h-14.91Z"/>
    <path class="cls-1" d="M1096.49,908.22c-9.66,0-17.88-1.73-24.64-5.18-6.76-3.45-11.94-8.81-15.53-16.08-3.59-7.27-5.38-16.52-5.38-27.75,0-16.57,4.03-28.87,12.08-36.93,8.05-8.05,19.26-12.08,33.62-12.08,7.91,0,15.02,1.34,21.33,4,6.3,2.67,11.27,6.65,14.91,11.94,3.63,5.29,5.45,12.03,5.45,20.22h-15.74c0-5.06-1.06-9.29-3.18-12.7-2.12-3.4-5.13-5.98-9.04-7.73-3.91-1.75-8.45-2.62-13.6-2.62-6.44,0-11.9,1.27-16.36,3.8-4.46,2.53-7.82,6.33-10.08,11.39-2.26,5.06-3.38,11.51-3.38,19.33v3.04c0,7.82,1.13,14.27,3.38,19.33,2.25,5.06,5.59,8.81,10.01,11.25,4.42,2.44,9.89,3.66,16.43,3.66,5.34,0,9.99-.85,13.94-2.55,3.96-1.7,7.02-4.26,9.18-7.66,2.16-3.4,3.24-7.64,3.24-12.7h15.19c0,8.19-1.82,14.96-5.45,20.29-3.64,5.34-8.61,9.3-14.91,11.87-6.31,2.58-13.46,3.87-21.47,3.87Z"/>
    <path class="cls-1" d="M1169.38,906.56v-94.7h15.46v94.7h-15.46Z"/>
    <path class="cls-1" d="M1210.66,906.56l37.14-94.7h19.74l37.27,94.7h-16.57l-8.42-21.95h-44.87l-8.42,21.95h-15.88ZM1239.93,871.5h34.79l-10.63-27.75c-.28-.83-.69-1.98-1.24-3.45-.55-1.47-1.13-3.08-1.73-4.83-.6-1.75-1.2-3.52-1.79-5.31-.6-1.79-1.13-3.43-1.59-4.9h-.83c-.55,1.75-1.24,3.82-2.07,6.21-.83,2.39-1.64,4.69-2.42,6.9-.78,2.21-1.45,4-2,5.38l-10.49,27.75Z"/>
    <path class="cls-1" d="M1413.87,908.22c-9.66,0-17.88-1.73-24.64-5.18-6.76-3.45-11.94-8.81-15.53-16.08-3.59-7.27-5.38-16.52-5.38-27.75,0-16.57,4.03-28.87,12.08-36.93,8.05-8.05,19.26-12.08,33.62-12.08,7.91,0,15.02,1.34,21.33,4,6.3,2.67,11.27,6.65,14.91,11.94,3.63,5.29,5.45,12.03,5.45,20.22h-15.74c0-5.06-1.06-9.29-3.18-12.7-2.12-3.4-5.13-5.98-9.04-7.73-3.91-1.75-8.45-2.62-13.6-2.62-6.44,0-11.9,1.27-16.36,3.8-4.46,2.53-7.82,6.33-10.08,11.39-2.26,5.06-3.38,11.51-3.38,19.33v3.04c0,7.82,1.13,14.27,3.38,19.33,2.25,5.06,5.59,8.81,10.01,11.25,4.42,2.44,9.89,3.66,16.43,3.66,5.34,0,9.99-.85,13.94-2.55,3.96-1.7,7.02-4.26,9.18-7.66,2.16-3.4,3.24-7.64,3.24-12.7h15.19c0,8.19-1.82,14.96-5.45,20.29-3.64,5.34-8.61,9.3-14.91,11.87-6.31,2.58-13.46,3.87-21.47,3.87Z"/>
    <path class="cls-1" d="M1486.76,906.56v-94.7h49.84c6.72,0,12.29,1.2,16.7,3.59,4.42,2.39,7.73,5.73,9.94,10.01s3.31,9.27,3.31,14.98c0,6.35-1.43,11.87-4.28,16.57-2.85,4.69-6.9,8.15-12.15,10.35l19.74,39.21h-16.84l-17.95-36.58h-32.86v36.58h-15.46ZM1502.22,857h33.13c4.97,0,8.81-1.47,11.53-4.42,2.71-2.94,4.07-7.04,4.07-12.29,0-3.22-.6-5.96-1.79-8.21-1.2-2.25-2.95-3.98-5.25-5.18-2.3-1.2-5.16-1.79-8.56-1.79h-33.13v31.89Z"/>
    <path class="cls-1" d="M1600.23,906.56v-94.7h73.44v13.25h-57.98v26.37h51.91v13.25h-51.91v28.58h58.81v13.25h-74.27Z"/>
    <path class="cls-1" d="M1696.73,906.56l37.14-94.7h19.74l37.27,94.7h-16.57l-8.42-21.95h-44.87l-8.42,21.95h-15.88ZM1726,871.5h34.79l-10.63-27.75c-.28-.83-.69-1.98-1.24-3.45-.55-1.47-1.13-3.08-1.73-4.83-.6-1.75-1.2-3.52-1.79-5.31-.6-1.79-1.13-3.43-1.59-4.9h-.83c-.55,1.75-1.24,3.82-2.07,6.21-.83,2.39-1.64,4.69-2.42,6.9-.78,2.21-1.45,4-2,5.38l-10.49,27.75Z"/>
    <path class="cls-1" d="M1828.15,906.56v-81.45h-31.34v-13.25h78.41v13.25h-31.61v81.45h-15.46Z"/>
    <path class="cls-1" d="M1903.25,906.56v-94.7h15.46v94.7h-15.46Z"/>
    <path class="cls-1" d="M1980.01,906.56l-34.93-94.7h16.7l23.47,66.13c.46,1.1.92,2.39,1.38,3.87.46,1.47.92,2.88,1.38,4.21.46,1.33.87,2.51,1.24,3.52h.69c.37-1.01.78-2.16,1.24-3.45.46-1.29.92-2.62,1.38-4,.46-1.38.92-2.71,1.38-4l23.19-66.26h16.15l-35.06,94.7h-18.22Z"/>
    <path class="cls-1" d="M2045.03,906.56l37.14-94.7h19.74l37.27,94.7h-16.57l-8.42-21.95h-44.87l-8.42,21.95h-15.88ZM2074.3,871.5h34.79l-10.63-27.75c-.28-.83-.69-1.98-1.24-3.45-.55-1.47-1.13-3.08-1.73-4.83-.6-1.75-1.2-3.52-1.79-5.31-.6-1.79-1.13-3.43-1.59-4.9h-.83c-.55,1.75-1.24,3.82-2.07,6.21-.83,2.39-1.64,4.69-2.42,6.9-.78,2.21-1.45,4-2,5.38l-10.49,27.75Z"/>
  </g>
</svg>