<?xml version="1.0" encoding="UTF-8"?>
<svg id="Capa_1" xmlns="http://www.w3.org/2000/svg" viewBox="0 0 2032.23 840.31">
  <defs>
    <style>
      .cls-1 {
        fill: #fff;
      }
    </style>
  </defs>
  <g>
    <path class="cls-1" d="M714.29,815.18c0,13.36-8.95,25.13-25.94,25.13-15.98,0-25.38-11.1-25.38-25.11,0-13.21,9.85-24.84,25.81-24.84s25.51,11.67,25.51,24.81ZM673.58,815.05c0,9.46,5.14,17.28,15.29,17.28s14.8-8.38,14.8-17.01-4.82-16.97-15.25-16.97-14.83,7.97-14.83,16.7Z"/>
    <path class="cls-1" d="M732.32,839.29v-47.91h11.94c12.59,18.76,21.2,30.17,24.11,35.61h.14c-.45-5.42-.39-13.93-.39-21.78v-13.83h9.26v47.91h-11.22c-5.35-7.92-21.8-32.38-24.84-37.89h-.14c.39,6,.39,12.8.39,21.3v16.59h-9.26Z"/>
    <path class="cls-1" d="M798.51,791.38h10.04v39.74h27.49l-1.36,8.17h-36.17v-47.91Z"/>
    <path class="cls-1" d="M860.99,791.38v47.91h-10.06v-47.91h10.06Z"/>
    <path class="cls-1" d="M882.13,839.29v-47.91h11.94c12.59,18.76,21.2,30.17,24.11,35.61h.14c-.45-5.42-.39-13.93-.39-21.78v-13.83h9.26v47.91h-11.22c-5.35-7.92-21.8-32.38-24.84-37.89h-.14c.39,6,.39,12.8.39,21.3v16.59h-9.26Z"/>
    <path class="cls-1" d="M985.76,818.4h-27.38v12.74h30.36l-1.2,8.15h-39.23v-47.91h38.91v8.15h-28.84v10.71h27.38v8.15Z"/>
    <path class="cls-1" d="M1077.86,820.2c0-8.48.05-17.09.32-22.28h-.07c-2.38,8.33-8.11,24.13-14.13,41.37h-8.83c-4.63-14.79-10.98-32.76-13.55-41.35h-.07c.38,5.54.75,15.12.75,23.26v18.09h-9.12v-47.91h14.52c5.38,15.11,11.01,30.25,12.43,36.12h.07c2.11-7.04,7.7-21.73,12.81-36.12h14.6v47.91h-9.73v-19.09Z"/>
    <path class="cls-1" d="M1117.64,827.24l-4.83,12.05h-10.38l19.72-47.91h12.75l20.65,47.91h-10.9l-5.1-12.05h-21.92ZM1136.65,819.07c-4.91-11.7-7.27-17.52-8.4-21.04h-.07c-1.05,3.44-3.82,11.02-7.82,21.04h16.29Z"/>
    <path class="cls-1" d="M1180.44,820.12v19.17h-9.97v-47.91h25.06c10.65,0,17.06,5.14,17.06,13.47,0,6.06-3.37,9.85-8.47,11.36,2.34.81,7.23,2.86,7.23,11.39v2.3c0,3.41-.05,7.21.59,9.39h-10.32c-.77-2.1-.81-5.19-.81-9.94v-1.58c0-5.56-2.09-7.65-9.53-7.65h-10.84ZM1180.44,812.43h12.78c6.24,0,9.08-2.22,9.08-6.8,0-4.25-2.89-6.55-8.93-6.55h-12.93v13.35Z"/>
    <path class="cls-1" d="M1231.13,791.38h10.06v21.8c7.05-6.34,15.32-13.55,24.43-21.8h12.47l-23.09,20.59,24.42,27.32h-12.64l-19.04-21.82-6.54,5.37v16.45h-10.06v-47.91Z"/>
    <path class="cls-1" d="M1330.01,818.4h-27.38v12.74h30.36l-1.2,8.15h-39.23v-47.91h38.91v8.15h-28.84v10.71h27.38v8.15Z"/>
    <path class="cls-1" d="M1362.96,799.51h-17.31v-8.13h44.66v8.13h-17.27v39.78h-10.08v-39.78Z"/>
    <path class="cls-1" d="M1416.09,791.38v47.91h-10.06v-47.91h10.06Z"/>
    <path class="cls-1" d="M1437.22,839.29v-47.91h11.94c12.59,18.76,21.2,30.17,24.11,35.61h.14c-.45-5.42-.39-13.93-.39-21.78v-13.83h9.26v47.91h-11.22c-5.35-7.92-21.8-32.38-24.84-37.89h-.14c.39,6,.39,12.8.39,21.3v16.59h-9.26Z"/>
    <path class="cls-1" d="M1549.62,839.29h-7.39c-.25-1.1-.57-3.75-.69-5.61-3.09,4.11-7.45,6.62-16.58,6.62-15.39,0-24.24-10.44-24.24-24.74s9.33-25.21,26.08-25.21c15.05,0,21.52,8.02,22.96,15.02h-10.19c-1.23-3.08-4.45-7.27-12.79-7.27-10.51,0-15.44,7.46-15.44,16.95,0,10.01,5.08,17.45,15.48,17.45,8.72,0,13.05-4.49,13.05-11.4v-.98h-12.91v-7.91h22.65v27.06Z"/>
    <path class="cls-1" d="M1642.26,824.46c-2.39,8.35-8.85,15.85-23.44,15.85-16.73,0-25.11-11.61-25.11-24.91s9.26-25.04,25.65-25.04c14.4,0,21.46,7.93,23.01,15.9h-10.22c-1.33-3.48-4.33-7.96-12.91-7.96-9.62,0-14.92,7.24-14.92,16.73s5.01,17.39,14.98,17.39c7.53,0,10.72-3.04,12.82-7.96h10.13Z"/>
    <path class="cls-1" d="M1669.08,820.12v19.17h-9.97v-47.91h25.06c10.65,0,17.06,5.14,17.06,13.47,0,6.06-3.37,9.85-8.47,11.36,2.34.81,7.23,2.86,7.23,11.39v2.3c0,3.41-.05,7.21.59,9.39h-10.32c-.77-2.1-.81-5.19-.81-9.94v-1.58c0-5.56-2.09-7.65-9.53-7.65h-10.84ZM1669.08,812.43h12.78c6.24,0,9.08-2.22,9.08-6.8,0-4.25-2.89-6.55-8.93-6.55h-12.93v13.35Z"/>
    <path class="cls-1" d="M1757.2,818.4h-27.38v12.74h30.36l-1.2,8.15h-39.23v-47.91h38.91v8.15h-28.84v10.71h27.38v8.15Z"/>
    <path class="cls-1" d="M1788.36,827.24l-4.83,12.05h-10.38l19.72-47.91h12.75l20.65,47.91h-10.9l-5.1-12.05h-21.92ZM1807.37,819.07c-4.91-11.7-7.27-17.52-8.4-21.04h-.07c-1.05,3.44-3.82,11.02-7.82,21.04h16.29Z"/>
    <path class="cls-1" d="M1846.58,799.51h-17.31v-8.13h44.67v8.13h-17.27v39.78h-10.08v-39.78Z"/>
    <path class="cls-1" d="M1899.71,791.38v47.91h-10.06v-47.91h10.06Z"/>
    <path class="cls-1" d="M1934.64,839.29l-19.98-47.91h11.11l9.23,23.7c3.45,8.9,4.88,13.44,5.74,16.37h.14c.75-2.63,1.9-5.65,5.98-16.61l9.24-23.46h10.76l-20.32,47.91h-11.89Z"/>
    <path class="cls-1" d="M2028.82,815.18c0,13.36-8.95,25.13-25.94,25.13-15.98,0-25.38-11.1-25.38-25.11,0-13.21,9.85-24.84,25.81-24.84s25.51,11.67,25.51,24.81ZM1988.12,815.05c0,9.46,5.14,17.28,15.29,17.28s14.8-8.38,14.8-17.01-4.82-16.97-15.25-16.97-14.83,7.97-14.83,16.7Z"/>
  </g>
  <rect class="cls-1" x="192.17" y="789.2" width="417.33" height="21.38"/>
  <path class="cls-1" d="M2030.2,564.7c-62.09,87.54-134.36,130.29-235.13,130.29-164.9,0-286.02-176.09-286.02-364.4S1619.99,11.99,1782.85,11.99c99.75,0,179.15,47.84,213.75,131.31l3.05-1.02-31.56-124.18c-72.27,5.09-83.47-17.3-185.25-17.3-151.37,0-271.19,93.99-313.91,234.36-2.09,6.88-12.28,5.32-12.28-1.88v-119.27c0-57,5.09-87.54,31.56-100.77v-2.04h-81.43l-259,609.65c-2.15,5.05-9.29,5.12-11.53.1L864.26,11.2h-79.4v2.04c23.41,13.23,28.5,43.77,28.5,100.77v118.55c0,6.92-9.56,8.76-12.1,2.33C748.36,101.29,603.11,0,410.87,0,166.95,0,0,163.04,0,348.26s166.95,346.95,410.87,346.95c192.25,0,337.5-101.29,390.4-234.25,2.56-6.42,12.1-4.57,12.1,2.34v129.11c0,57-5.09,87.54-28.5,100.77v2.04h77.36v-2.04c-23.41-13.23-28.5-43.77-28.5-100.77V100.62c0-6.78,9.25-8.76,12.02-2.57l267.9,597.16h21.38L1397.77,76.28c2.68-6.3,12.07-4.39,12.07,2.46v513.67c0,57-5.09,87.54-31.55,100.77v2.04h109.93v-2.04c-26.47-13.23-31.56-43.77-31.56-100.77v-120.57c0-7.21,10.21-8.76,12.28-1.85,42.48,141.14,161.05,236.2,309.83,236.2,124.18,0,192.38-51.91,253.45-140.47l-2.04-1.02ZM410.87,684.77c-204.78,0-340.43-165.65-340.43-336.52S206.09,10.44,410.87,10.44s341.74,165.65,341.74,337.82-135.65,336.52-341.74,336.52Z"/>
</svg>