<?xml version="1.0" standalone="no"?>
<!DOCTYPE svg PUBLIC "-//W3C//DTD SVG 20010904//EN"
 "http://www.w3.org/TR/2001/REC-SVG-20010904/DTD/svg10.dtd">
<svg version="1.0" xmlns="http://www.w3.org/2000/svg"
 width="4001.000000pt" height="1281.000000pt" viewBox="0 0 4001.000000 1281.000000"
 preserveAspectRatio="xMidYMid meet">

<g transform="translate(0.000000,1281.000000) scale(0.100000,-0.100000)"
fill="#000000" stroke="none">
<path d="M3440 12794 c-19 -2 -87 -9 -150 -15 -260 -24 -601 -97 -866 -185
-1246 -412 -2105 -1326 -2344 -2494 -40 -198 -59 -352 -69 -568 -47 -999 274
-1876 929 -2532 582 -583 1400 -965 2310 -1077 182 -22 682 -25 865 -5 1046
116 1978 595 2571 1322 470 577 714 1297 714 2110 0 649 -151 1228 -454 1738
-544 914 -1569 1537 -2776 1687 -118 15 -647 29 -730 19z m2287 -1224 c239
-30 432 -122 564 -269 372 -412 210 -1065 -465 -1871 -138 -165 -473 -506
-651 -661 -867 -760 -1886 -1343 -2701 -1547 -258 -65 -350 -77 -584 -76 -190
0 -212 2 -305 27 -292 79 -490 250 -576 499 -87 254 -44 544 136 905 256 517
764 1091 1450 1638 1120 894 2398 1447 3132 1355z"/>
<path d="M8780 8265 l0 -3895 690 0 690 0 0 2691 0 2690 23 -6 c12 -4 83 -30
157 -57 1127 -419 2118 -1156 2736 -2038 380 -542 630 -1146 739 -1783 l25
-148 0 -675 0 -674 690 0 690 0 0 3895 0 3895 -690 0 -690 0 0 -2492 c0 -1370
-2 -2489 -5 -2487 -2 3 -18 72 -35 155 -191 927 -568 1765 -1139 2531 -236
318 -446 559 -755 869 -450 450 -910 832 -1555 1293 l-184 131 -693 0 -694 0
0 -3895z"/>
<path d="M16600 8265 l0 -3895 2815 0 2815 0 0 440 0 440 -2125 0 -2125 0 0
3455 0 3455 -690 0 -690 0 0 -3895z"/>
<path d="M23650 8265 l0 -3895 690 0 690 0 0 3895 0 3895 -690 0 -690 0 0
-3895z"/>
<path d="M26410 8265 l0 -3895 690 0 690 0 0 2691 0 2690 23 -6 c12 -4 96 -35
187 -70 1160 -439 2154 -1200 2764 -2115 338 -506 562 -1055 670 -1644 l26
-139 0 -704 0 -703 695 0 695 0 0 3895 0 3895 -695 0 -695 0 -1 -2482 -1
-2483 -33 155 c-158 738 -409 1379 -783 1995 -580 956 -1485 1862 -2718 2723
l-131 92 -692 0 -691 0 0 -3895z"/>
<path d="M34230 8265 l0 -3895 2885 0 2885 0 0 885 0 885 -2195 0 -2195 0 1
1763 0 1762 43 -125 c162 -476 428 -825 846 -1112 317 -217 684 -383 1450
-656 500 -178 604 -217 837 -311 444 -179 819 -371 1128 -578 l80 -53 3 852
c1 468 -1 855 -5 859 -27 26 -393 114 -658 159 -170 28 -279 43 -1070 139
-1224 150 -1799 357 -2231 803 -100 103 -244 296 -244 326 0 9 513 12 2075 12
l2075 0 0 1090 0 1090 -2855 0 -2855 0 0 -3895z"/>
<path d="M78 5988 l-78 -31 0 -1139 0 -1138 3700 0 3700 0 0 1134 0 1134 -81
32 -80 33 -132 -130 c-201 -197 -375 -338 -620 -501 -314 -210 -544 -328 -992
-509 -496 -200 -842 -292 -1315 -350 -205 -25 -743 -25 -952 0 -428 51 -847
157 -1203 305 -66 27 -176 73 -245 101 -575 238 -1078 567 -1506 983 -61 59
-113 108 -115 107 -2 0 -39 -14 -81 -31z"/>
<path d="M10895 1430 c-222 -35 -378 -139 -463 -308 -61 -123 -77 -205 -77
-407 0 -201 16 -284 77 -406 101 -202 297 -302 593 -302 196 0 316 36 431 129
l53 43 5 -27 c2 -15 8 -48 11 -75 l6 -47 85 0 84 0 0 365 0 365 -350 0 -350 0
0 -90 0 -90 233 -2 232 -3 -1 -50 c-4 -139 -84 -247 -219 -297 -72 -26 -252
-36 -336 -19 -162 34 -260 131 -306 304 -23 88 -23 319 0 407 46 172 144 271
307 311 87 22 242 17 327 -9 127 -39 223 -144 223 -244 l0 -38 120 0 120 0 -6
48 c-26 227 -148 359 -391 423 -90 23 -312 34 -408 19z"/>
<path d="M15925 1431 c-205 -33 -368 -140 -442 -291 -65 -133 -78 -203 -78
-420 0 -174 3 -204 23 -275 69 -238 206 -372 432 -421 112 -25 322 -22 425 5
168 44 277 126 340 256 31 63 55 160 55 223 0 22 -1 23 -112 20 l-113 -3 -6
-50 c-14 -109 -77 -193 -182 -241 -59 -27 -69 -29 -197 -29 -117 0 -142 3
-192 23 -114 46 -193 147 -229 292 -18 72 -18 326 0 400 46 188 160 294 344
321 60 9 96 9 150 0 174 -29 271 -117 299 -271 l10 -60 114 0 c131 0 122 -9
103 110 -30 192 -173 338 -384 395 -69 18 -286 28 -360 16z"/>
<path d="M20568 1430 c-150 -27 -256 -78 -345 -166 -120 -121 -173 -285 -173
-544 0 -394 138 -612 437 -691 111 -30 336 -30 445 -1 107 29 182 68 248 129
85 78 130 176 144 316 l6 57 -114 0 -113 0 -6 -54 c-14 -133 -110 -233 -258
-266 -82 -18 -240 -9 -310 19 -158 61 -236 201 -246 441 -15 350 101 532 361
571 230 34 421 -81 444 -269 l7 -57 118 -3 117 -3 -6 58 c-14 141 -59 237
-146 318 -65 61 -154 107 -249 130 -75 19 -293 28 -361 15z"/>
<path d="M8944 727 l-271 -692 115 -3 c63 -1 117 -1 119 2 2 2 31 73 63 158
l58 153 329 0 328 0 60 -157 60 -158 124 0 c113 0 123 1 117 17 -4 10 -127
323 -274 696 l-266 677 -146 0 -145 0 -271 -693z m465 347 c27 -77 81 -222
120 -324 39 -102 71 -191 71 -197 0 -10 -56 -13 -245 -13 -148 0 -245 4 -245
9 0 6 42 122 94 258 51 136 105 285 121 331 15 46 29 81 32 79 2 -3 26 -67 52
-143z"/>
<path d="M12210 725 l0 -695 545 0 545 0 0 95 0 95 -430 0 -430 0 0 210 0 210
380 0 380 0 0 95 0 95 -380 0 -380 0 0 195 0 195 425 0 425 0 0 100 0 100
-540 0 -540 0 0 -695z"/>
<path d="M13780 725 l0 -695 110 0 110 0 2 496 3 496 67 -98 c37 -55 197 -277
355 -494 l289 -395 107 -3 107 -3 0 696 0 695 -105 0 -105 0 0 -490 c0 -269
-3 -490 -8 -490 -4 0 -13 10 -21 23 -8 12 -167 232 -354 490 l-341 467 -108 0
-108 0 0 -695z"/>
<path d="M17130 725 l0 -695 115 0 115 0 0 695 0 695 -115 0 -115 0 0 -695z"/>
<path d="M18255 1353 c-73 -183 -515 -1313 -515 -1318 0 -3 53 -4 117 -3 l117
3 56 145 c31 80 59 151 63 158 6 9 84 12 332 12 l323 0 36 -92 c19 -51 46
-122 60 -158 l24 -65 125 -3 125 -3 -173 438 c-95 241 -217 553 -272 693
l-100 255 -146 3 -145 3 -27 -68z m206 -240 c17 -54 72 -203 120 -331 49 -127
89 -234 89 -237 0 -3 -112 -5 -250 -5 -137 0 -250 2 -250 4 0 2 42 116 94 253
51 136 106 285 122 331 16 45 32 82 36 82 3 0 21 -44 39 -97z"/>
<path d="M21780 726 l0 -696 115 0 115 0 0 265 0 265 238 0 239 0 131 -265
131 -265 126 0 125 0 -143 286 c-96 195 -138 288 -129 291 42 15 113 77 149
131 54 80 78 180 70 296 -12 185 -99 306 -261 359 -56 19 -93 21 -483 25
l-423 4 0 -696z m793 483 c49 -13 105 -63 128 -114 37 -80 19 -198 -39 -266
-61 -71 -72 -73 -379 -77 l-273 -4 0 236 0 236 263 0 c152 0 278 -5 300 -11z"/>
<path d="M23440 725 l0 -695 545 0 545 0 0 95 0 95 -430 0 -430 0 0 210 0 210
380 0 380 0 0 95 0 95 -380 0 -380 0 0 195 0 195 425 0 425 0 0 100 0 100
-540 0 -540 0 0 -695z"/>
<path d="M25391 1398 c-5 -13 -126 -323 -270 -689 -143 -366 -261 -669 -261
-673 0 -4 52 -5 116 -4 l117 3 56 145 c31 80 60 151 64 157 6 10 84 13 331 13
l324 0 59 -157 60 -158 122 -3 c66 -1 121 1 121 6 0 5 -121 316 -269 693
l-270 684 -146 3 c-143 2 -145 2 -154 -20z m187 -286 c19 -53 74 -202 123
-330 49 -129 89 -236 89 -238 0 -2 -112 -4 -250 -4 -137 0 -250 2 -250 5 0 3
44 123 99 268 54 144 108 292 121 330 12 37 25 67 28 67 4 0 22 -44 40 -98z"/>
<path d="M26320 1320 l0 -100 230 0 230 0 0 -595 0 -595 115 0 115 0 0 595 0
595 230 0 230 0 0 100 0 100 -575 0 -575 0 0 -100z"/>
<path d="M27880 725 l0 -695 115 0 115 0 0 695 0 695 -115 0 -115 0 0 -695z"/>
<path d="M28504 1383 c8 -21 118 -321 246 -668 128 -347 237 -642 242 -657
l10 -28 136 0 137 0 239 648 c132 356 248 669 258 695 l18 48 -121 -3 -122 -3
-196 -562 c-109 -309 -200 -565 -203 -568 -2 -3 -94 246 -203 552 -109 307
-200 564 -202 571 -4 9 -39 12 -129 12 l-123 0 13 -37z"/>
<path d="M30497 1408 c-42 -104 -537 -1370 -537 -1374 0 -2 53 -3 117 -2 l117
3 48 125 c26 69 55 140 63 158 l15 32 324 0 325 0 19 -52 c11 -29 39 -101 62
-160 l41 -108 124 0 123 0 -94 238 c-51 130 -174 442 -272 692 l-179 455 -146
3 c-110 2 -146 -1 -150 -10z m178 -280 c15 -46 70 -194 121 -330 52 -136 94
-250 94 -253 0 -3 -112 -5 -250 -5 -137 0 -250 2 -250 4 0 2 40 109 88 238 49
128 104 277 123 330 19 54 37 98 41 98 3 0 19 -37 33 -82z"/>
</g>
</svg>
